<svg xmlns="http://www.w3.org/2000/svg" width="60" height="60" viewBox="0 0 60 60" fill="none"><rect width="60" height="60" rx="5" fill="#3D92F6"></rect><path d="M37.1144 10.7643H22.0572V12.27H37.1144V10.7643Z" fill="white"></path><path d="M44.2666 35.2322C44.2666 33.7794 43.0843 32.5972 41.6316 32.5972H40.1259V22.0572H38.6202V32.5972H36.738C35.2852 32.5972 34.103 33.7795 34.103 35.2322C34.103 35.9699 34.4096 36.6356 34.8997 37.1144C34.4096 37.5932 34.103 38.2589 34.103 38.9965C34.103 39.5041 34.254 39.9743 34.5038 40.3769C33.6032 40.7964 32.9737 41.7038 32.9737 42.7609C32.9737 43.1665 33.0735 43.5466 33.238 43.8901H27.3272C27.3272 41.5882 26.1737 39.5509 24.4143 38.326C26.1156 37.6775 27.3272 36.0292 27.3272 34.103C27.3272 33.6872 26.9905 33.3501 26.5744 33.3501H20.5515V25.8215H19.0458V33.3501C17.8004 33.3501 16.7872 34.3633 16.7872 35.6087V52.1716H18.2929V35.6087C18.2929 35.1937 18.6304 34.8558 19.0458 34.8558H25.7259C25.3914 36.1531 24.2106 37.1144 22.8101 37.1144H20.5515C20.1354 37.1144 19.7986 37.4515 19.7986 37.8673C19.7986 38.283 20.1354 38.6201 20.5515 38.6201C23.4571 38.6201 25.8215 40.9842 25.8215 43.8901V44.643C25.8215 45.0588 26.1582 45.3959 26.5744 45.3959H30.9795C30.815 45.7395 30.7151 46.1195 30.7151 46.5252C30.7151 47.978 31.8974 49.1602 33.3501 49.1602V52.1716H34.8559V49.1602H37.8673H38.2437C39.6966 49.1602 40.8787 47.9779 40.8787 46.5252C40.8787 46.1151 40.7764 45.7315 40.6086 45.3851C42.0112 45.3279 43.1373 44.1773 43.1373 42.7609C43.1373 42.2533 42.9863 41.7831 42.7365 41.3805C43.6371 40.961 44.2666 40.0536 44.2666 38.9965C44.2666 38.2589 43.96 37.5932 43.4699 37.1144C43.96 36.6356 44.2666 35.9699 44.2666 35.2322ZM38.2437 47.6544H37.8673H34.103H33.3501C32.7274 47.6544 32.2208 47.1479 32.2208 46.5252C32.2208 45.9024 32.7274 45.3959 33.3501 45.3959H35.6087H38.2437C38.8664 45.3959 39.373 45.9024 39.373 46.5252C39.373 47.1479 38.8664 47.6544 38.2437 47.6544ZM40.5023 43.8901H38.2437H35.6087C34.986 43.8901 34.4794 43.3836 34.4794 42.7609C34.4794 42.1381 34.986 41.6316 35.6087 41.6316H36.738H40.5023C41.125 41.6316 41.6316 42.1381 41.6316 42.7609C41.6316 43.3836 41.125 43.8901 40.5023 43.8901ZM41.6316 40.1258H40.5023H36.738C36.1153 40.1258 35.6087 39.6193 35.6087 38.9965C35.6087 38.3738 36.1153 37.8673 36.738 37.8673H41.6316C42.2543 37.8673 42.7609 38.3738 42.7609 38.9965C42.7609 39.6193 42.2543 40.1258 41.6316 40.1258ZM41.6316 36.3615H36.738C36.1153 36.3615 35.6087 35.855 35.6087 35.2322C35.6087 34.6095 36.1153 34.103 36.738 34.103H41.6316C42.2543 34.103 42.7609 34.6095 42.7609 35.2322C42.7609 35.855 42.2543 36.3615 41.6316 36.3615Z" fill="white"></path><path d="M18.2908 16.5828C18.2753 16.3666 18.1679 16.1674 17.9952 16.0365L17.2114 15.4424C17.024 14.4933 16.1909 13.7758 15.1947 13.7758C14.0706 13.7758 13.1537 14.6896 13.139 15.8185C12.5376 15.7134 11.9627 15.4826 11.448 15.1359L11.1855 14.9587C10.9554 14.8032 10.6569 14.7863 10.4107 14.9178C10.1651 15.0484 10.0115 15.3043 10.0115 15.5825V16.2002C10.0115 17.1074 10.2849 17.9728 10.7923 18.6996L10.2291 19.2694C10.0152 19.4852 9.95264 19.8083 10.0696 20.0888C10.1864 20.3688 10.4606 20.5515 10.7643 20.5515H14.4125C15.8675 20.5515 17.0703 19.4424 17.232 18.0191L18.0753 17.1659C18.2275 17.0118 18.3062 16.7993 18.2908 16.5828ZM15.9623 17.1615C15.8226 17.3022 15.7446 17.4927 15.7446 17.6908C15.7446 18.4378 15.1468 19.0458 14.4124 19.0458H12.4972C12.6164 18.7716 12.5649 18.4407 12.3421 18.2154C11.9907 17.8596 11.7393 17.4118 11.612 16.9291C12.3304 17.232 13.1023 17.3894 13.892 17.3894C14.3081 17.3894 14.6448 17.0523 14.6448 16.6365V15.8461C14.6448 15.5347 14.8919 15.2815 15.1948 15.2815C15.4977 15.2815 15.7448 15.5347 15.7448 15.8461C15.7448 16.0818 15.8551 16.3038 16.0425 16.4461L16.4014 16.7177L15.9623 17.1615Z" fill="white"></path><path d="M31.8444 19.7986V18.2929H29.5858C29.1697 18.2929 28.833 18.63 28.833 19.0458V21.3043H27.3272V22.8101H28.833V25.8215H30.3387V22.8101H31.8444V21.3043H30.3387V19.7986H31.8444Z" fill="white"></path><path d="M34.103 15.2815H25.0686C23.8232 15.2815 22.8101 16.2947 22.8101 17.5401V26.5744C22.8101 27.8198 23.8232 28.833 25.0686 28.833H34.103C35.3484 28.833 36.3615 27.8198 36.3615 26.5744V17.5401C36.3615 16.2947 35.3484 15.2815 34.103 15.2815ZM34.8558 26.5744C34.8558 26.9894 34.5184 27.3273 34.103 27.3273H25.0686C24.6532 27.3273 24.3158 26.9894 24.3158 26.5744V17.5401C24.3158 17.1251 24.6532 16.7872 25.0686 16.7872H34.103C34.5184 16.7872 34.8558 17.1251 34.8558 17.5401V26.5744Z" fill="white"></path><path d="M18.2929 10.7643H9.25858C8.01316 10.7643 7 11.7774 7 13.0229V22.0572C7 23.3026 8.01316 24.3158 9.25858 24.3158H18.2929C19.5383 24.3158 20.5515 23.3026 20.5515 22.0572V13.0229C20.5515 11.7774 19.5383 10.7643 18.2929 10.7643ZM19.0458 22.0572C19.0458 22.4722 18.7083 22.81 18.2929 22.81H9.25858C8.84319 22.81 8.50572 22.4722 8.50572 22.0572V13.0229C8.50572 12.6078 8.84319 12.27 9.25858 12.27H18.2929C18.7083 12.27 19.0458 12.6078 19.0458 13.0229V22.0572Z" fill="white"></path><path d="M49.9131 7H40.8787C39.6333 7 38.6201 8.01316 38.6201 9.25858V18.2929C38.6201 19.5383 39.6333 20.5515 40.8787 20.5515H49.9131C51.1585 20.5515 52.1716 19.5383 52.1716 18.2929V9.25858C52.1716 8.01316 51.1585 7 49.9131 7ZM50.6659 18.2929C50.6659 18.7079 50.3284 19.0458 49.9131 19.0458H40.8787C40.4633 19.0458 40.1259 18.7079 40.1259 18.2929V14.5286H41.7077C42.0575 16.2446 43.5782 17.54 45.3959 17.54C47.2136 17.54 48.7343 16.2446 49.0841 14.5286H50.6659V18.2929ZM43.1373 13.7757C43.1373 12.5303 44.1505 11.5172 45.3959 11.5172C46.6413 11.5172 47.6545 12.5303 47.6545 13.7757C47.6545 15.0212 46.6413 16.0343 45.3959 16.0343C44.1505 16.0343 43.1373 15.0212 43.1373 13.7757ZM50.6659 13.0229H49.0841C48.7343 11.3069 47.2136 10.0114 45.3959 10.0114C43.5782 10.0114 42.0575 11.3069 41.7077 13.0229H40.1259V9.25858C40.1259 8.84357 40.4633 8.50572 40.8787 8.50572H49.9131C50.3284 8.50572 50.6659 8.84357 50.6659 9.25858V13.0229Z" fill="white"></path><path d="M30.3387 37.8673H28.8329V39.373H30.3387V37.8673Z" fill="white"></path></svg>