<svg xmlns="http://www.w3.org/2000/svg" width="60" height="60" viewBox="0 0 60 60" fill="none"><rect width="60" height="60" rx="5" fill="#FFB444"></rect><path d="M13.3644 33.1682C12.977 33.35 12.8061 33.8075 12.9787 34.1986L14.7483 37.9972C14.8352 38.1864 14.9938 38.3336 15.1888 38.4063C15.2743 38.4373 15.3649 38.4533 15.4561 38.4533C15.5701 38.4543 15.6826 38.4299 15.7863 38.3829L29.1558 32.1383L27.9448 44.7997C27.9214 45.0489 28.0175 45.2939 28.2039 45.4604C28.79 45.9456 29.5205 46.2219 30.2805 46.2468C30.4901 46.2465 30.6984 46.2202 30.9016 46.1685C31.987 45.8853 32.8285 44.9181 33.4026 43.2663L38.6638 27.6873L49.0838 22.8268C52.151 21.3956 53.7316 18.4937 52.6701 16.2287C52.0677 15.0449 50.9139 14.2395 49.5951 14.0817C48.1297 13.8605 46.6321 14.091 45.3012 14.7427L33.2765 20.3812L20.3479 15.3244C18.7197 14.7112 17.4302 14.7269 16.5259 15.3798C15.7671 16.0024 15.3354 16.9382 15.3539 17.9197C15.3617 18.1687 15.4871 18.3989 15.692 18.5413L24.3977 24.5258L19.412 26.8852L11.0519 24.7615C10.7093 24.6773 10.3527 24.8317 10.1791 25.1391L8.0953 28.8901C7.98719 29.0889 7.97019 29.3248 8.04876 29.5371C8.12683 29.7496 8.29282 29.9178 8.50437 29.9991L14.6936 32.5552L13.3644 33.1682ZM16.9657 17.5266C17.012 17.1941 17.1802 16.8915 17.4379 16.6772C17.8863 16.3546 18.7042 16.4019 19.7972 16.8107L31.3107 21.3013L26.0571 23.755L16.9657 17.5266ZM9.88821 28.8825L11.2565 26.4525L19.3017 28.4498C19.4751 28.4936 19.658 28.4771 19.8211 28.403L45.9699 16.1896C47.0094 15.6768 48.1802 15.4901 49.3279 15.6546C50.1327 15.7288 50.8496 16.1933 51.2469 16.8971C51.9069 18.313 50.6095 20.3812 48.4152 21.4035L39.3556 25.6506L39.9063 24.0222C40.0454 23.6033 39.8181 23.1506 39.3992 23.0117C38.9798 22.8728 38.5274 23.1001 38.3885 23.519L31.916 42.7785C31.5306 43.8719 31.0509 44.5248 30.5162 44.6659C30.185 44.7297 29.8421 44.6647 29.5567 44.4854L31.1297 27.97C31.1708 27.5358 30.8524 27.1504 30.4177 27.1093C29.9835 27.0677 29.5981 27.3866 29.5567 27.8208L29.3131 30.3451L15.8176 36.6365L14.7093 34.2772L16.9266 33.2394C17.212 33.1135 17.396 32.8313 17.396 32.5198C17.396 32.208 17.212 31.9257 16.9266 31.8001L9.88821 28.8825Z" fill="white"></path></svg>