<svg xmlns="http://www.w3.org/2000/svg" width="60" height="60" viewBox="0 0 60 60" fill="none"><rect width="60" height="60" rx="5" fill="#5E44FF"></rect><path d="M33.5002 35.5025C33.5002 39.6447 36.858 43.0025 41.0001 43.0025C45.1419 43.0025 48.4998 39.6447 48.4998 35.5025C48.4998 31.3607 45.1419 28.0029 41.0001 28.0029C36.8598 28.0074 33.5047 31.3625 33.5002 35.5025ZM41.0001 29.5027C44.3138 29.5027 47 32.1889 47 35.5025C47 38.8162 44.3138 41.5024 41.0001 41.5024C37.6864 41.5024 35.0003 38.8162 35.0003 35.5025C35.0039 32.1907 37.688 29.5063 41.0001 29.5027Z" fill="white"></path><path d="M36.7148 50.5025H45.2865V52.0023H36.7148V50.5025Z" fill="white"></path><path d="M33.5002 47.5023H48.5001V49.0024H33.5002V47.5023Z" fill="white"></path><path d="M17.0006 47.5023H18.5007V49.0024H17.0006V47.5023Z" fill="white"></path><path d="M12.5007 49.0024H14.0005V50.5025H12.5007V49.0024Z" fill="white"></path><path d="M17.0756 43.2821C20.9917 36.4617 23.4488 28.9021 24.2911 21.0826L31.2662 28.0162C31.4057 28.1551 31.5941 28.2334 31.7911 28.2344C31.8317 28.2347 31.8725 28.2313 31.9124 28.2247C32.1503 28.1859 32.3548 28.0353 32.4622 27.8198C33.8761 24.9978 33.3224 21.5873 31.0883 19.3577L30.475 18.7441H35.7502C36.1644 18.7444 36.5005 18.4089 36.5005 17.9947C36.5008 17.9136 36.4875 17.8331 36.4621 17.7565C35.4661 14.7611 32.6631 12.7412 29.5065 12.7442H28.5316L32.277 8.97701C32.5693 8.68352 32.5681 8.2088 32.2746 7.91652C32.2177 7.85994 32.1524 7.81274 32.0807 7.77704C29.2574 6.36164 25.8451 6.91503 23.614 9.15038L22.8978 9.86655C22.6643 10.1016 22.4473 10.3522 22.2476 10.6166C22.0503 10.3522 21.8349 10.1016 21.6032 9.86655L20.887 9.15038C18.6577 6.91655 15.2472 6.36316 12.4258 7.77704C12.0551 7.96221 11.9047 8.41273 12.0899 8.78307C12.1256 8.85478 12.1728 8.92013 12.2294 8.97701L15.9791 12.7442H14.9945C11.8379 12.7412 9.03462 14.7611 8.03888 17.7565C7.90757 18.1493 8.11966 18.5741 8.5127 18.7054C8.58924 18.7311 8.66973 18.7441 8.75081 18.7441H14.0209L13.4076 19.3577C11.1734 21.5873 10.6198 24.9978 12.0333 27.8198C12.1411 28.0353 12.3456 28.1859 12.5831 28.2247C12.6233 28.2313 12.6639 28.2347 12.7047 28.2344C12.9029 28.2344 13.0929 28.156 13.2333 28.0162L19.7285 21.5595C18.9242 28.7463 16.2175 35.5885 11.8872 41.3802C10.8791 41.1154 9.85699 40.907 8.82585 40.7563L8.35718 40.7091L8.2071 42.2023L8.64431 42.2449C9.39437 42.3523 10.1396 42.5039 10.8809 42.6755C10.7308 42.8637 10.5807 43.0549 10.4255 43.2403L11.5759 44.2025C17.3394 37.35 20.7753 28.8428 21.3874 19.9096L22.2506 19.0518L22.8969 19.6945C22.1084 29.2479 18.8292 38.4281 13.3864 46.3189L14.6148 47.1785C15.2045 46.3368 15.767 45.4633 16.3122 44.5731C19.8204 46.2512 22.9181 48.678 25.387 51.6828L26.5471 50.7325C25.0872 48.9576 23.4146 47.3688 21.5665 46.0025H53V44.5023H19.3445C18.6093 44.0585 17.8504 43.6564 17.0756 43.2821ZM31.5158 26.1479L23.5916 18.2694C25.6185 17.6643 27.8139 18.2134 29.317 19.7017L30.0332 20.4182C31.5336 21.9159 32.1012 24.1104 31.5158 26.1479ZM34.6059 17.2443H28.396C26.9498 16.556 25.318 16.3611 23.7505 16.69C24.8418 15.1554 26.6082 14.2441 28.4913 14.2444H29.5037C31.6238 14.241 33.5781 15.3902 34.6059 17.2443ZM23.9559 10.927L24.6724 10.2109C26.1713 8.71015 28.3667 8.14224 30.4051 8.728L25.9592 13.2002C24.5163 13.7312 23.2776 14.7037 22.4186 15.979C22.0697 14.1442 22.6452 12.255 23.9583 10.927H23.9559ZM19.8244 10.2109L20.5406 10.927C20.8746 11.268 21.1644 11.6499 21.4032 12.0632C21.0634 12.8532 20.8694 13.6976 20.8301 14.5563C20.1569 13.9681 19.3814 13.5088 18.5427 13.2002L14.0959 8.728C16.1337 8.14254 18.3285 8.71045 19.8265 10.2109H19.8244ZM14.9921 14.2444H16.0048C17.8892 14.2425 19.658 15.1536 20.7505 16.6891C19.1839 16.3614 17.5527 16.5563 16.1074 17.2443H9.89511C10.9226 15.3911 12.8754 14.2422 14.9945 14.2444H14.9921ZM12.9852 26.1479C12.3997 24.1104 12.9677 21.9159 14.4681 20.4182L15.1842 19.7017C16.2632 18.6255 17.7264 18.0231 19.2507 18.0279C19.8132 18.0282 20.3726 18.1084 20.9127 18.2664L12.9852 26.1479Z" fill="white"></path></svg>