<svg xmlns="http://www.w3.org/2000/svg" width="25" height="27" viewBox="0 0 25 27" fill="none"><path d="M22.2662 2.91473C20.2067 0.895637 16.8771 -0.082689 12.3681 0.0054671C7.82167 0.0948859 4.78258 0.892882 2.80401 2.51688C0.890974 4.08693 0 6.38439 0 9.74706V13.179C0 17.1487 2.12723 21.513 6.19285 22.1734C6.66221 22.2502 7.10437 21.9311 7.18059 21.4616C7.25681 20.9924 6.93816 20.5501 6.4688 20.4739C3.38552 19.9731 1.7218 16.3416 1.7218 13.179V9.74706C1.7218 4.92533 3.50845 1.90174 12.4019 1.72681C16.4338 1.64692 19.3438 2.46087 21.0606 4.1441C22.3984 5.45599 23.0488 7.28868 23.0488 9.74706V13.179C23.0488 18.3758 20.7162 20.668 14.7335 21.3429H10.4913C10.263 21.3429 10.0439 21.4336 9.88255 21.5951L6.89339 24.5843C6.55718 24.9205 6.55718 25.4656 6.89339 25.8018C7.06144 25.9699 7.28183 26.054 7.50211 26.054C7.72238 26.054 7.94277 25.97 8.11082 25.8018L10.8479 23.0647H14.7816C14.8133 23.0647 14.8451 23.063 14.8767 23.0594C18.3005 22.6791 20.6452 21.7881 22.2551 20.255C23.9478 18.6429 24.7707 16.3284 24.7707 13.1788V9.74706C24.7707 6.84307 23.9281 4.54436 22.2662 2.91473Z" fill="black" fill-opacity="0.6"></path><path d="M12.9227 5.62305C12.9228 5.62305 12.9228 5.62305 12.923 5.62305C14.3102 5.62305 15.6144 6.16335 16.5954 7.14432C17.5765 8.1254 18.1168 9.42983 18.1167 10.8173C18.1167 11.2927 18.502 11.6782 18.9775 11.6782C18.9776 11.6782 18.9776 11.6782 18.9776 11.6782C19.453 11.6782 19.8385 11.2928 19.8385 10.8174C19.8386 8.97 19.1192 7.23316 17.8129 5.92689C16.5068 4.62062 14.7703 3.90137 12.923 3.90137C12.9229 3.90137 12.9226 3.90137 12.9225 3.90137C12.447 3.90137 12.0617 4.28682 12.0617 4.76227C12.0618 5.2376 12.4472 5.62305 12.9227 5.62305Z" fill="black" fill-opacity="0.6"></path><path d="M12.9225 8.65051C14.1172 8.65074 15.0893 9.62275 15.0894 10.8173C15.0895 11.2928 15.4749 11.6782 15.9504 11.6781C16.426 11.6781 16.8113 11.2926 16.8112 10.8171C16.8109 8.67335 15.0666 6.92906 12.9227 6.92871H12.9226C12.4471 6.92871 12.0618 7.31405 12.0617 7.7895C12.0617 8.26494 12.447 8.65051 12.9225 8.65051Z" fill="black" fill-opacity="0.6"></path><path d="M9.06203 10.1258C8.66957 10.3942 8.56891 10.9299 8.83716 11.3224C9.10542 11.7148 9.64124 11.8154 10.0337 11.5471C10.3424 11.3362 11.0653 10.8419 11.0145 9.8538C10.9824 9.26242 10.449 8.41805 10.0072 7.81382C9.36093 6.92973 8.80399 6.39724 8.35529 6.23217C7.93632 6.07618 7.49818 6.07285 7.05212 6.22253C6.1282 6.53383 5.45739 7.0964 5.11234 7.8494C4.77636 8.58243 4.78382 9.42485 5.13403 10.2861C5.96118 12.3153 7.11915 14.0918 8.58348 15.574C10.0579 17.0305 11.8344 18.1885 13.8644 19.0161C14.3036 19.1948 14.7382 19.2842 15.1559 19.2842C15.5565 19.2842 15.9417 19.202 16.3005 19.0375C17.0535 18.6924 17.6159 18.0217 17.9276 17.0966C18.0768 16.6516 18.0735 16.2137 17.9187 15.7976C17.7525 15.3457 17.2199 14.7888 16.3359 14.1426C15.7316 13.7008 14.8872 13.1673 14.2935 13.1351C13.3075 13.0855 12.8137 13.8072 12.6027 14.1158C12.3344 14.5083 12.4348 15.044 12.8273 15.3125C13.2198 15.581 13.7554 15.4804 14.0239 15.088C14.1176 14.951 14.1711 14.8888 14.2017 14.8616C14.685 15.0164 16.063 16.0289 16.311 16.4168C16.3171 16.4416 16.3185 16.4794 16.2955 16.5482C16.1869 16.8706 15.9752 17.2927 15.5832 17.4724C15.216 17.6405 14.7987 17.5374 14.5138 17.4216C12.6948 16.6799 11.1067 15.6463 9.80091 14.3564C8.50371 13.0434 7.47005 11.4553 6.72888 9.63697C6.61271 9.35138 6.50952 8.9339 6.67768 8.56705C6.85732 8.17505 7.27951 7.96315 7.60091 7.8548C7.66955 7.83184 7.70732 7.8331 7.73349 7.83941C8.12158 8.08793 9.13343 9.46514 9.28839 9.9485C9.26107 9.97869 9.19897 10.0323 9.06203 10.1258Z" fill="black" fill-opacity="0.6"></path></svg>