<svg xmlns="http://www.w3.org/2000/svg" width="60" height="60" viewBox="0 0 60 60" fill="none"><rect width="60" height="60" rx="5" fill="#4EE058"></rect><path d="M44.5236 34.63L36.8444 32.0703V29.7364C37.8231 28.5318 38.5007 27.1767 38.8771 25.6709L41.211 23.9394C41.8133 23.4876 42.1144 22.8101 42.1144 22.1325V21.3796C42.1144 20.0998 41.1357 19.1211 39.8558 19.1211H39.103V14.6792L40.0817 11.1407C40.4581 9.93616 39.7053 8.65629 38.5007 8.35515C38.4254 8.35515 38.3501 8.27986 38.1995 8.27986L30.0687 7L21.8625 8.27986C20.6579 8.50572 19.7545 9.63501 19.9803 10.8396C19.9803 10.9149 19.9803 10.9902 20.0556 11.1407L21.0343 14.6792V19.0458H20.2815C19.0016 19.0458 18.0229 20.0245 18.0229 21.3043V22.0572C18.0229 22.7348 18.324 23.4124 18.9263 23.8641L21.2602 25.5957C21.6366 27.1014 22.3142 28.5318 23.2929 29.6611V31.995L15.6137 34.5547C13.4304 35.3076 12 37.265 12 39.5236V52.1716H48.1373V39.5989C48.1373 37.3403 46.7069 35.3076 44.5236 34.63ZM24.7986 31.1668C24.8739 31.2421 24.9492 31.3174 25.0998 31.3927L25.7021 31.8444C26.7561 32.5973 28.0359 33.1243 29.3911 33.2748V36.738L24.8739 34.4794V31.1668H24.7986ZM30.8215 33.1995C32.1767 33.049 33.3812 32.5973 34.5105 31.7691L35.1128 31.3174C35.1881 31.2421 35.2634 31.1668 35.414 31.0915V34.3288L30.8968 36.5874L30.8215 33.1995ZM37.5973 15.2815V16.7872H22.54V15.2815H37.5973ZM36.8444 18.2929C33.5318 22.0572 27.7348 22.3584 24.0458 18.9705C23.8199 18.7446 23.5941 18.5188 23.3682 18.2929H36.8444ZM39.8558 20.5515C40.3076 20.5515 40.6087 20.8526 40.6087 21.3043V22.0572C40.6087 22.2831 40.5334 22.5089 40.3076 22.6595L39.103 23.5629V23.4876V20.5515H39.8558ZM21.5613 10.0867C21.7119 9.93616 21.8625 9.78558 22.0883 9.78558L30.0687 8.50572L38.049 9.7103C38.4254 9.78558 38.7265 10.162 38.6513 10.5384V10.6137L37.7478 13.7757H22.3895L21.486 10.689C21.4108 10.4632 21.4108 10.2373 21.5613 10.0867ZM19.8297 22.6595C19.6039 22.5089 19.5286 22.2831 19.5286 22.0572V21.3043C19.5286 20.8526 19.8297 20.5515 20.2815 20.5515H21.0343V23.4876V23.5629L19.8297 22.6595ZM22.54 19.6481C26.6055 23.7888 33.306 23.8641 37.4467 19.7986C37.522 19.7233 37.522 19.7233 37.5973 19.6481V23.4876C37.5973 26.1227 36.3174 28.6071 34.2094 30.1881L33.6071 30.6398C31.4991 32.1455 28.6382 32.1455 26.5302 30.6398L25.9279 30.1881C23.8199 28.6071 22.54 26.1227 22.54 23.4876V19.6481ZM13.5057 39.5989C13.5057 37.9426 14.5597 36.5121 16.0654 36.0604L23.2929 33.6513V35.3076L28.5629 37.9426L27.0572 38.9213V50.6659H21.0343V43.8902H19.5286V50.6659H13.5057V39.5989ZM46.6316 50.6659H40.6087V43.8902H39.103V50.6659H28.5629V39.7494L30.4451 38.4696L36.8444 35.3076V33.6513L44.0719 36.0604C45.5776 36.5874 46.6316 38.0178 46.6316 39.5989V50.6659Z" fill="white"></path><path d="M30.0687 44.643H31.5744V46.1487H30.0687V44.643Z" fill="white"></path><path d="M30.0687 47.6545H31.5744V49.1602H30.0687V47.6545Z" fill="white"></path><path d="M30.0687 41.6316H31.5744V43.1373H30.0687V41.6316Z" fill="white"></path><path d="M33.0801 40.8787H39.103V42.3844H33.0801V40.8787Z" fill="white"></path></svg>