<svg xmlns="http://www.w3.org/2000/svg" width="18" height="18" viewBox="0 0 18 18" fill="none"><path d="M15.3831 2.01371C13.9603 0.618771 11.6599 -0.0571276 8.54482 0.00377707C5.40378 0.0655541 3.30416 0.616868 1.93721 1.73885C0.61555 2.82355 0 4.4108 0 6.73398V9.10498C0 11.8476 1.46964 14.8628 4.27847 15.319C4.60274 15.3721 4.90822 15.1516 4.96088 14.8272C5.01353 14.5031 4.79339 14.1975 4.46912 14.1448C2.33896 13.7988 1.18954 11.2899 1.18954 9.10498V6.73398C1.18954 3.40278 2.4239 1.31386 8.56813 1.193C11.3536 1.13781 13.3641 1.70015 14.5502 2.86305C15.4745 3.7694 15.9238 5.03555 15.9238 6.73398V9.10498C15.9238 12.6953 14.3123 14.2789 10.179 14.7452H7.24813C7.0904 14.7452 6.93909 14.8079 6.82759 14.9195L4.76246 16.9846C4.53018 17.2169 4.53018 17.5935 4.76246 17.8258C4.87856 17.9419 5.03082 18 5.183 18C5.33519 18 5.48745 17.9419 5.60355 17.8258L7.49453 15.9348H10.2122C10.2341 15.9348 10.2561 15.9336 10.2779 15.9311C12.6434 15.6684 14.2632 15.0528 15.3754 13.9936C16.5449 12.8799 17.1134 11.2808 17.1134 9.1049V6.73398C17.1134 4.7277 16.5313 3.13958 15.3831 2.01371Z" fill="white"></path><path d="M8.92804 3.88478C8.92812 3.88478 8.92812 3.88478 8.92828 3.88478C9.88666 3.88478 10.7877 4.25806 11.4654 4.93578C12.1432 5.61358 12.5165 6.51478 12.5164 7.47332C12.5164 7.80179 12.7826 8.06809 13.1111 8.06809C13.1112 8.06809 13.1112 8.06809 13.1112 8.06809C13.4397 8.06809 13.706 7.80187 13.706 7.4734C13.706 6.19709 13.2091 4.99716 12.3066 4.09469C11.4042 3.19222 10.2045 2.69531 8.92828 2.69531C8.9282 2.69531 8.92796 2.69531 8.92788 2.69531C8.59941 2.69531 8.33319 2.96161 8.33319 3.29008C8.33327 3.61848 8.59957 3.88478 8.92804 3.88478Z" fill="white"></path><path d="M8.92788 5.97641C9.75327 5.97657 10.4249 6.64811 10.425 7.47341C10.425 7.80188 10.6913 8.06818 11.0198 8.0681C11.3484 8.0681 11.6146 7.80173 11.6145 7.47325C11.6143 5.99219 10.4092 4.7871 8.92804 4.78687H8.92796C8.59949 4.78687 8.33327 5.05309 8.33319 5.38156C8.33319 5.71003 8.59941 5.97641 8.92788 5.97641Z" fill="white"></path><path d="M6.26073 6.99562C5.9896 7.18103 5.92005 7.55114 6.10538 7.82227C6.29071 8.09341 6.6609 8.16288 6.93203 7.97755C7.14528 7.83179 7.64473 7.49031 7.60968 6.80767C7.58747 6.3991 7.21895 5.81575 6.91371 5.3983C6.46724 4.78751 6.08246 4.41962 5.77246 4.30558C5.48301 4.19781 5.18031 4.19551 4.87214 4.29892C4.23383 4.51399 3.77038 4.90265 3.532 5.42288C3.29988 5.92931 3.30503 6.51132 3.54699 7.10633C4.11844 8.50824 4.91845 9.73562 5.93012 10.7596C6.94877 11.7659 8.17606 12.5659 9.57853 13.1376C9.88202 13.2611 10.1823 13.3229 10.4708 13.3229C10.7476 13.3229 11.0137 13.2661 11.2616 13.1525C11.7818 12.914 12.1704 12.4506 12.3857 11.8115C12.4888 11.5041 12.4865 11.2015 12.3796 10.9141C12.2648 10.6018 11.8968 10.2171 11.2861 9.77067C10.8686 9.46543 10.2852 9.09691 9.87505 9.07463C9.19383 9.04037 8.85267 9.53894 8.70691 9.75219C8.5215 10.0233 8.59089 10.3934 8.86203 10.5789C9.13324 10.7644 9.50327 10.6949 9.68876 10.4238C9.75347 10.3292 9.79043 10.2862 9.8116 10.2674C10.1455 10.3744 11.0975 11.0739 11.2689 11.3419C11.2731 11.359 11.274 11.3851 11.2582 11.4326C11.1831 11.6554 11.0368 11.947 10.766 12.0712C10.5123 12.1873 10.2241 12.1161 10.0272 12.036C8.77051 11.5237 7.67336 10.8095 6.77121 9.91841C5.875 9.01126 5.16088 7.91411 4.64882 6.65787C4.56857 6.46056 4.49727 6.17214 4.61345 5.91868C4.73756 5.64787 5.02924 5.50147 5.25129 5.42661C5.29871 5.41075 5.3248 5.41162 5.34288 5.41598C5.611 5.58767 6.31006 6.53915 6.41712 6.8731C6.39824 6.89395 6.35534 6.93099 6.26073 6.99562Z" fill="white"></path></svg>