<svg xmlns="http://www.w3.org/2000/svg" width="25" height="18" viewBox="0 0 25 18" fill="none"><path d="M22.8027 -0.00012207H2.19727C0.983252 -0.00012207 0 0.989233 0 2.19714V15.3807C0 16.5958 0.990479 17.578 2.19727 17.578H22.8027C24.0066 17.578 25 16.6 25 15.3807V2.19714C25 0.991382 24.0207 -0.00012207 22.8027 -0.00012207ZM22.495 1.46472C22.0461 1.91125 14.3205 9.59622 14.0537 9.86155C13.6387 10.2766 13.0869 10.5051 12.5 10.5051C11.9131 10.5051 11.3613 10.2765 10.9449 9.86018C10.7655 9.68171 3.12515 2.08162 2.50498 1.46472H22.495ZM1.46484 15.0826V2.49622L7.79482 8.79285L1.46484 15.0826ZM2.50591 16.1132L8.8334 9.8259L9.9105 10.8973C10.6022 11.589 11.5218 11.9699 12.5 11.9699C13.4782 11.9699 14.3978 11.589 15.0881 10.8987L16.1666 9.8259L22.4941 16.1132H2.50591ZM23.5352 15.0826L17.2052 8.79285L23.5352 2.49622V15.0826Z" fill="white"></path></svg>