<svg xmlns="http://www.w3.org/2000/svg" width="20" height="24" viewBox="0 0 20 24" fill="none"><path d="M9.99992 0C4.48608 0 0 4.37627 0 9.7553C0 13.1216 2.64908 17.1683 3.78816 18.7519C4.658 19.9612 7.63046 23.8561 9.87884 23.9935C9.9187 23.9975 9.95901 24 9.99992 24C10.0408 24 10.0813 23.9975 10.1212 23.9935C12.3695 23.8559 15.342 19.9614 16.2118 18.7519C17.3508 17.1683 20 13.1218 20 9.7553C20 4.37627 15.5139 0 9.99992 0ZM14.4564 17.3598C12.3268 20.3568 10.5175 21.7189 10.0002 21.7971C9.48371 21.7196 7.67393 20.3578 5.54363 17.3598C3.51591 14.506 2.2562 11.5922 2.2562 9.7553C2.2562 5.58989 5.73014 2.20097 9.99992 2.20097C14.2699 2.20097 17.7438 5.58989 17.7438 9.7553C17.7438 11.5922 16.4842 14.506 14.4564 17.3598Z" fill="black" fill-opacity="0.6"></path><path d="M9.99993 5C9.38621 5 8.88867 5.49738 8.88867 6.11121C8.88867 6.72504 9.38621 7.22242 9.99993 7.22242C11.5314 7.22242 12.7775 8.46831 12.7775 9.99985C12.7775 11.5315 11.5314 12.7776 9.99993 12.7776C8.46846 12.7776 7.22252 11.5315 7.22252 9.99985C7.22252 9.38602 6.72497 8.88864 6.11126 8.88864C5.49755 8.88864 5 9.38602 5 9.99985C5 12.7568 7.24297 15 9.99993 15C12.7569 15 15 12.7568 15 9.99985C15 7.24287 12.757 5 9.99993 5Z" fill="black" fill-opacity="0.6"></path></svg>