<svg xmlns="http://www.w3.org/2000/svg" width="15" height="18" viewBox="0 0 15 18" fill="none"><path d="M7.49994 0C3.36456 0 0 3.2822 0 7.31648C0 9.84121 1.98681 12.8762 2.84112 14.0639C3.4935 14.9709 5.72285 17.892 7.40913 17.9952C7.43903 17.9981 7.46926 18 7.49994 18C7.53063 18 7.56097 17.9981 7.59087 17.9952C9.27715 17.8919 11.5065 14.971 12.1589 14.0639C13.0131 12.8762 15 9.84132 15 7.31648C15 3.2822 11.6354 0 7.49994 0ZM10.8423 13.0199C9.24511 15.2676 7.88812 16.2892 7.50017 16.3478C7.11278 16.2897 5.75545 15.2684 4.15772 13.0199C2.63693 10.8795 1.69215 8.69417 1.69215 7.31648C1.69215 4.19241 4.29761 1.65073 7.49994 1.65073C10.7024 1.65073 13.3079 4.19241 13.3079 7.31648C13.3079 8.69417 12.3632 10.8795 10.8423 13.0199Z" fill="white"></path><path d="M7.49994 3.75C7.03966 3.75 6.6665 4.12303 6.6665 4.58341C6.6665 5.04378 7.03966 5.41681 7.49994 5.41681C8.64854 5.41681 9.58311 6.35123 9.58311 7.49989C9.58311 8.64866 8.64854 9.58318 7.49994 9.58318C6.35135 9.58318 5.41689 8.64866 5.41689 7.49989C5.41689 7.03951 5.04373 6.66648 4.58344 6.66648C4.12316 6.66648 3.75 7.03951 3.75 7.49989C3.75 9.56763 5.43222 11.25 7.49994 11.25C9.56766 11.25 11.25 9.56763 11.25 7.49989C11.25 5.43215 9.56778 3.75 7.49994 3.75Z" fill="white"></path></svg>