<svg xmlns="http://www.w3.org/2000/svg" width="27" height="27" viewBox="0 0 27 27" fill="none"><path d="M26.5645 13.0645H26.129V10.3767C26.129 9.46568 25.7745 8.60952 25.1305 7.96631C24.4864 7.32223 23.6302 6.96774 22.7196 6.96774H22.2097V6.49655C23.2492 5.89297 23.9516 4.77029 23.9516 3.48387C23.9516 1.56295 22.3887 0 20.4677 0C18.5468 0 16.9839 1.56295 16.9839 3.48387C16.9839 4.76986 17.6863 5.89297 18.7258 6.49655V6.96774H18.2159C17.3053 6.96774 16.4491 7.32223 15.805 7.96631C15.1609 8.60995 14.8065 9.46568 14.8065 10.3767V13.0645H13.9355V11.7581C13.9355 11.5172 13.7404 11.3226 13.5 11.3226H12.1935V11.1732C12.1935 9.90334 12.6221 8.7001 13.4072 7.72505C13.5692 7.7969 13.7474 7.83871 13.9355 7.83871C14.6558 7.83871 15.2419 7.25255 15.2419 6.53226C15.2419 5.81197 14.6558 5.22581 13.9355 5.22581C13.2152 5.22581 12.629 5.81197 12.629 6.53226C12.629 6.74477 12.6848 6.94205 12.7749 7.11973C11.8347 8.25939 11.3226 9.67689 11.3226 11.1732V11.3226H10.0161C9.77574 11.3226 9.58065 11.5172 9.58065 11.7581V13.0645H9.14516C8.90477 13.0645 8.70968 13.2592 8.70968 13.5V15.2419C8.70968 15.4828 8.90477 15.6774 9.14516 15.6774H9.58065V18.2903C8.38002 18.2903 7.40323 19.2671 7.40323 20.4677C7.40323 21.1144 7.69239 21.6897 8.14137 22.089C7.4594 22.4 6.89371 22.9226 6.53226 23.5754C6.17081 22.923 5.60511 22.4004 4.92315 22.089C5.37213 21.6897 5.66129 21.1144 5.66129 20.4677C5.66129 19.2671 4.6845 18.2903 3.48387 18.2903C2.28324 18.2903 1.30645 19.2671 1.30645 20.4677C1.30645 21.1144 1.59561 21.6897 2.0446 22.089C0.840484 22.6382 0 23.8506 0 25.2581V26.5645C0 26.8053 0.195097 27 0.435484 27H18.7258C18.9662 27 19.1613 26.8053 19.1613 26.5645V26.129H25.6935C25.9339 26.129 26.129 25.9344 26.129 25.6935V15.6774H26.5645C26.8049 15.6774 27 15.4828 27 15.2419V13.5C27 13.2592 26.8049 13.0645 26.5645 13.0645ZM13.9355 6.09677C14.1754 6.09677 14.371 6.29187 14.371 6.53226C14.371 6.77264 14.1754 6.96774 13.9355 6.96774C13.6955 6.96774 13.5 6.77264 13.5 6.53226C13.5 6.29187 13.6955 6.09677 13.9355 6.09677ZM25.2581 10.3767V13.0645H24.3871V11.3226H23.5161V13.0645H20.9032V9.84977L22.015 10.4055C22.076 10.4364 22.143 10.4516 22.2097 10.4516C22.2663 10.4516 22.3229 10.4407 22.3765 10.4185C22.4932 10.3702 22.5829 10.2735 22.623 10.1542L23.3663 7.9245C23.7966 8.03729 24.192 8.25939 24.5151 8.58252C24.9942 9.06155 25.2581 9.69866 25.2581 10.3767ZM18.9435 7.83871L19.8062 8.98882L18.9801 9.4021L18.4593 7.83871H18.9435ZM21.9919 7.83871H22.4766L21.9558 9.4021L21.1297 8.98882L21.9919 7.83871ZM20.4677 0.870968C21.7481 0.870968 22.8141 1.79724 23.0362 3.01442C22.2114 2.9099 21.448 2.54148 20.851 1.94444L20.7765 1.86953C20.6132 1.70535 20.3232 1.70535 20.1599 1.86953L20.0858 1.944C19.4883 2.54148 18.7249 2.9099 17.9001 3.01398C18.1214 1.79724 19.1874 0.870968 20.4677 0.870968ZM17.8875 3.89627C18.8447 3.80134 19.74 3.41419 20.4677 2.77839C21.1954 3.41376 22.0904 3.80134 23.048 3.89627C22.8498 5.14176 21.7681 6.09677 20.4677 6.09677C19.1674 6.09677 18.0856 5.14176 17.8875 3.89627ZM20.4677 6.96774C20.7691 6.96774 21.0596 6.9255 21.3387 6.85321V7.25821L20.4677 8.41921L19.5968 7.25821V6.85321C19.8759 6.9255 20.1664 6.96774 20.4677 6.96774ZM15.6774 10.3767C15.6774 9.69866 15.9413 9.06111 16.4208 8.58208C16.7439 8.25939 17.1393 8.03685 17.5696 7.92406L18.313 10.1537C18.353 10.2731 18.4427 10.3697 18.5595 10.4181C18.6126 10.4407 18.6692 10.4516 18.7258 10.4516C18.7924 10.4516 18.8595 10.4364 18.9205 10.4059L20.0323 9.84977V13.0645H17.4194V11.3226H16.5484V13.0645H15.6774V10.3767ZM10.4516 12.1935H13.0645V13.0645H10.4516V12.1935ZM8.27419 20.4677C8.27419 19.7475 8.86035 19.1613 9.58065 19.1613C10.3009 19.1613 10.8871 19.7475 10.8871 20.4677C10.8871 21.188 10.3009 21.7742 9.58065 21.7742C8.86035 21.7742 8.27419 21.188 8.27419 20.4677ZM2.17742 20.4677C2.17742 19.7475 2.76358 19.1613 3.48387 19.1613C4.20416 19.1613 4.79032 19.7475 4.79032 20.4677C4.79032 21.188 4.20416 21.7742 3.48387 21.7742C2.76358 21.7742 2.17742 21.188 2.17742 20.4677ZM0.870968 25.2581C0.870968 23.817 2.04285 22.6452 3.48387 22.6452C4.92489 22.6452 6.09677 23.817 6.09677 25.2581V26.129H0.870968V25.2581ZM6.96774 25.2581C6.96774 23.817 8.13963 22.6452 9.58065 22.6452C11.0217 22.6452 12.1935 23.817 12.1935 25.2581V26.129H6.96774V25.2581ZM18.2903 26.129H13.0645V25.2581C13.0645 23.817 14.2364 22.6452 15.6774 22.6452C17.1184 22.6452 18.2903 23.817 18.2903 25.2581V26.129ZM14.371 20.4677C14.371 19.7475 14.9571 19.1613 15.6774 19.1613C16.3977 19.1613 16.9839 19.7475 16.9839 20.4677C16.9839 21.188 16.3977 21.7742 15.6774 21.7742C14.9571 21.7742 14.371 21.188 14.371 20.4677ZM25.2581 25.2581H19.1613C19.1613 23.8506 18.3208 22.6382 17.1167 22.089C17.5657 21.6897 17.8548 21.1144 17.8548 20.4677C17.8548 19.2671 16.878 18.2903 15.6774 18.2903C14.4768 18.2903 13.5 19.2671 13.5 20.4677C13.5 21.1144 13.7892 21.6897 14.2381 22.089C13.5562 22.4 12.9905 22.9226 12.629 23.5754C12.2676 22.923 11.7019 22.4004 11.0199 22.089C11.4689 21.6897 11.7581 21.1144 11.7581 20.4677C11.7581 19.5772 11.2194 18.812 10.4516 18.475V15.6774H25.2581V25.2581ZM26.129 14.8065H9.58065V13.9355H26.129V14.8065Z" fill="#FFB444"></path><path d="M1.30645 8.70968H8.27419C8.99448 8.70968 9.58065 8.12352 9.58065 7.40323V6.71255L11.195 5.09821C11.3653 4.92794 11.3653 4.65271 11.195 4.48244L9.58065 2.8681V2.17742C9.58065 1.45713 8.99448 0.870968 8.27419 0.870968H1.30645C0.586161 0.870968 0 1.45713 0 2.17742V7.40323C0 8.12352 0.586161 8.70968 1.30645 8.70968ZM0.870968 2.17742C0.870968 1.93703 1.0665 1.74194 1.30645 1.74194H8.27419C8.51414 1.74194 8.70968 1.93703 8.70968 2.17742V3.04839C8.70968 3.16423 8.7554 3.27484 8.83727 3.35627L10.2713 4.79032L8.83727 6.22437C8.7554 6.30581 8.70968 6.41642 8.70968 6.53226V7.40323C8.70968 7.64361 8.51414 7.83871 8.27419 7.83871H1.30645C1.0665 7.83871 0.870968 7.64361 0.870968 7.40323V2.17742Z" fill="#FFB444"></path><path d="M1.74194 2.6129H7.83871V3.48387H1.74194V2.6129Z" fill="#FFB444"></path><path d="M1.74194 6.09677H7.83871V6.96774H1.74194V6.09677Z" fill="#FFB444"></path><path d="M2.6129 4.35484H6.96774V5.22581H2.6129V4.35484Z" fill="#FFB444"></path></svg>